<?xml version="1.0" encoding="UTF-8" standalone="no"?>
<svg
   xmlns:dc="http://purl.org/dc/elements/1.1/"
   xmlns:cc="http://creativecommons.org/ns#"
   xmlns:rdf="http://www.w3.org/1999/02/22-rdf-syntax-ns#"
   xmlns:svg="http://www.w3.org/2000/svg"
   xmlns="http://www.w3.org/2000/svg"
   id="svg26"
   version="1.1"
   height="349"
   width="430">
  <metadata
     id="metadata32">
    <rdf:RDF>
      <cc:Work
         rdf:about="">
        <dc:format>image/svg+xml</dc:format>
        <dc:type
           rdf:resource="http://purl.org/dc/dcmitype/StillImage" />
      </cc:Work>
    </rdf:RDF>
  </metadata>
  <defs
     id="defs30" />
  <g
     id="g14"
     class="currentLayer">
    <title
       id="title2">Layer 1</title>
    <rect
       fill="#474a51"
       fill-rule="nonzero"
       id="svg_10"
       x="-1"
       y="0"
       width="431"
       height="349.157898"
       class="selected"
       stroke-width="0" />
    <g
       id="svg_1"
       class="selected"
       fill="#ffffff">
      <path
         d="m267.06844,195.57895c0,2.8 -2.2,5 -5,5c-2.8,0 -5,-2.2 -5,-5l0,-20l-40.2,19.5c-0.2,0.1 -0.4,0.1 -0.6,0.2c-0.1,0 -0.2,0.1 -0.4,0.1c-0.4,0.1 -0.8,0.2 -1.3,0.2l0,0l0,0c-0.4,0 -0.8,-0.1 -1.3,-0.2c-0.1,0 -0.2,-0.1 -0.4,-0.1c-0.2,-0.1 -0.4,-0.1 -0.6,-0.2l-40.1,-19.5l0,20.4c0,2.8 -2.2,5 -5,5c-2.8,0 -5,-2.2 -5,-5l0,-28c0,-0.1 0,-0.2 0,-0.3c0,-0.8 0.1,-1.6 0.5,-2.4c1.2,-2.5 4.2,-3.5 6.7,-2.3l45.2,22l45.2,-22c0,0 0.1,0 0.1,0c0.2,-0.1 0.3,-0.1 0.5,-0.2c0.1,0 0.3,-0.1 0.4,-0.1c0.1,0 0.3,0 0.5,-0.1c0.2,0 0.4,-0.1 0.6,-0.1c0,0 0.1,0 0.1,0c0.1,0 0.2,0 0.3,0c0.2,0 0.4,0 0.6,0.1c0.2,0 0.3,0.1 0.4,0.1c0.2,0 0.3,0.1 0.5,0.2c0.1,0.1 0.3,0.1 0.4,0.2c0.2,0.1 0.3,0.2 0.4,0.2c0.1,0.1 0.2,0.2 0.4,0.3c0.1,0.1 0.3,0.2 0.4,0.3c0.1,0.1 0.2,0.2 0.3,0.3c0.1,0.1 0.2,0.2 0.3,0.4c0.1,0.2 0.2,0.3 0.3,0.5c0,0.1 0.1,0.2 0.2,0.3c0,0 0,0.1 0,0.1c0.1,0.2 0.1,0.4 0.2,0.6c0,0.1 0.1,0.3 0.1,0.4c0,0.2 0.1,0.3 0.1,0.5c0,0.2 0,0.3 0.1,0.5c0,0 0,0.1 0,0.1l0,28l0.1,0zm-1.7,-71l-47.4,41.2c0,0 -0.1,0 -0.1,0.1c-0.4,0.3 -0.9,0.6 -1.3,0.8c-0.1,0 -0.2,0.1 -0.3,0.1c-0.5,0.2 -1,0.3 -1.5,0.3c0,0 0,0 0,0l0,0c0,0 0,0 0,0c0,0 0,0 0,0c-0.5,0 -1,-0.1 -1.5,-0.3c-0.1,0 -0.2,-0.1 -0.3,-0.1c-0.5,-0.2 -0.9,-0.5 -1.3,-0.8c0,0 -0.1,0 -0.1,-0.1l-47.7,-41.2c-2.1,-1.8 -2.3,-5 -0.5,-7.1c1.8,-2.1 5,-2.3 7.1,-0.5l44.1,38.3l44.1,-38.3c2.1,-1.8 5.3,-1.6 7.1,0.5c1.9,2.1 1.6,5.2 -0.4,7.1m-103.2,89.8c0,-2.8 2.2,-5 5,-5l94.8,0c2.8,0 5,2.2 5,5s-2.2,5 -5,5l-42.4,0l0,15.1c0,2.8 -2.2,5 -5,5c-2.8,0 -5,-2.2 -5,-5l0,-15.1l-42.4,0c-2.8,0 -5,-2.2 -5,-5m162.7,-38c0,-60.8 -49.5,-110.3 -110.3,-110.3c-60.8,0 -110.3,49.5 -110.3,110.3c0,60.8 49.5,110.3 110.3,110.3c60.9,0 110.3,-49.4 110.3,-110.3"
         id="svg_2"
         fill="#ffffff" />
      <path
         d="m135.46844,51.87895c1,2.1 3.6,2.9 5.7,1.9c2.1,-1.1 2.9,-3.6 1.9,-5.7c-1.1,-2.1 -3.6,-2.9 -5.7,-1.9c-2.1,1 -3,3.6 -1.9,5.7"
         id="svg_3"
         fill="#ffffff" />
      <path
         d="m285.26844,47.77895c-1.2,2 -0.5,4.6 1.5,5.8c2,1.2 4.6,0.5 5.8,-1.5c1.2,-2 0.5,-4.6 -1.5,-5.8c-2,-1.2 -4.7,-0.5 -5.8,1.5"
         id="svg_4"
         fill="#ffffff" />
    </g>
    <polygon
       points="176.86843872070312,27.278945922851562 175.86843872070312,23.97894287109375 162.06845092773438,28.178955078125 163.06845092773438,31.378952026367188 168.2684326171875,29.878952026367188 174.06845092773438,49.278961181640625 177.56845092773438,48.178955078125 171.66842651367188,28.778945922851562 "
       id="svg_5"
       class="selected"
       fill="#ffffff" />
    <polygon
       points="222.26846313476562,17.97894287109375 213.96844482421875,36.37895202636719 205.66842651367188,17.97894287109375 200.7684326171875,43.47894287109375 204.46844482421875,43.47894287109375 206.96844482421875,29.178955078125 213.7684326171875,44.47894287109375 220.66842651367188,29.078948974609375 223.06845092773438,43.37895202636719 226.76846313476562,43.37895202636719 "
       id="svg_6"
       class="selected"
       fill="#ffffff" />
    <polygon
       points="246.46841430664062,22.178955078125 249.46841430664062,49.278961181640625 266.5684509277344,27.97894287109375 262.8684387207031,26.878952026367188 251.86843872070312,40.87895202636719 250.16842651367188,23.178955078125 "
       id="svg_7"
       class="selected"
       fill="#ffffff" />
    <g
       id="svg_8"
       class="selected"
       fill="#ffffff">
      <path
         d="m106.86844,99.47895l-9.4,-10.8l16,4.4l-7.5,-14.8l12.4,7l2.3,-2.8l-22.2,-12.4l8.9,17.8l-19.2,-5.2l16.4,19.7l2.3,-2.9zm-11.5,20.7l1.5,-3.2l-22.1,-10.2l8.7,21.3l-14.3,-6.6l-1.5,3.2l22.2,10.2l-8.7,-21.3l14.2,6.6zm-14.4,41.7c-0.7,5 -4.8,8 -10,7.2s-8.2,-4.8 -7.5,-9.8s4.8,-8 10,-7.2c5.1,0.8 8.2,4.9 7.5,9.8m-20.7,-3c-1,6.9 3.4,12.8 10.2,13.8c6.8,1 12.7,-3.3 13.7,-10.3c1,-6.9 -3.4,-12.8 -10.2,-13.8c-6.8,-1 -12.7,3.4 -13.7,10.3m4.7,41.3l-0.2,-1.6c-0.4,-4 1.8,-4.8 3.1,-4.9c2.2,-0.2 3.8,1.1 4.1,4.1l0.2,1.6l-7.2,0.8zm-2.9,3.9l23.2,-2.5l-0.4,-3.5l-9.4,1l-0.2,-1.6c-0.2,-1.7 -0.7,-3.8 -2.4,-5.5c-1.8,-1.7 -4,-1.9 -5.3,-1.7c-2.1,0.2 -4.2,1.4 -5.3,3.5c-0.9,1.8 -0.9,3.8 -0.7,5.2l0.5,5.1zm8.5,18l-3.2,1.1l4.5,13.6l3.2,-1.1l-1.7,-5.1l19,-6.3l-1.1,-3.4l-19,6.3l-1.7,-5.1zm11.3,30.7c0,2.4 0.7,4.4 1.8,6.2c1.7,2.7 3.8,4.7 7,5.6c2.6,0.7 6.1,0.7 9.7,-1.6c2.8,-1.7 4.8,-4.2 5.5,-7.8c0.4,-1.8 0.6,-5.1 -1.6,-8.7c-0.8,-1.4 -2.4,-3.3 -4.8,-4.5l-3.6,2.2c1.8,0.5 4.1,1.6 5.6,4c2.6,4.2 1.2,9.3 -3,11.9c-4.4,2.7 -9.4,1.7 -12,-2.6c-0.7,-1.1 -1.8,-3.3 -1.1,-6.8l-3.5,2.1zm57.2,30.4l-2.9,-2.1l-14,19.9l22.5,-4.7l-9.1,12.9l2.9,2.1l14,-20l-22.5,4.7l9.1,-12.8zm68.4,24.9l-4.8,13.5l-4,-16.1l-9.3,13.8l0,-14.3l-3.6,-0.6l0.1,25.5l11.1,-16.5l4.9,19.2l9.1,-23.9l-3.5,-0.6zm21.4,22.1l12.8,-1.2l-2.2,-23.2l-12.8,1.2l0.3,3.3l9.3,-0.9l0.7,7.3l-9,0.9l0.3,3.3l9,-0.9l0.6,5.9l-9.3,0.9l0.3,3.4zm50.6,-12.3l-13.2,-13.3l0.8,-7.2l-3.5,1.2l-2.7,25.5l3.5,-1.2l1.3,-13.5l9.6,9.9l4.2,-1.4zm22.1,-16.9l-1.3,0.8c-3.5,2.1 -5.1,0.4 -5.8,-0.7c-1.1,-1.8 -0.7,-3.9 1.9,-5.5l1.4,-0.8l3.8,6.2zm4.7,0.9l-12.2,-19.9l-3,1.9l5,8.1l-1.4,0.8c-1.5,0.9 -3.2,2.2 -3.9,4.5c-0.8,2.4 0,4.4 0.7,5.5c1.1,1.8 3.1,3.2 5.4,3.3c2,0.1 3.8,-0.9 5,-1.6l4.4,-2.6zm3.2,-33.9l-2.5,2.5l17.3,17.1l-0.9,-23l11.2,11.1l2.5,-2.5l-17.4,-17.1l0.9,23l-11.1,-11.1zm35.8,-13.6l2.9,1.7l7.3,-12.2l-2.9,-1.7l-2.8,4.6l-17.1,-10.3l-1.8,3.1l17.1,10.3l-2.7,4.5zm20.8,-39.9l1.1,-3.4l-22.2,-7.3l-1.1,3.4l9.2,3l0.4,0.9l-12.5,4.6l-1.5,4.5l15.5,-6l6.7,13.3l1.5,-4.5l-6,-11.5l8.9,3zm4,-25l1.1,-12.8l-23.3,-1.9l-1.1,12.8l3.3,0.3l0.8,-9.3l7.3,0.6l-0.7,9l3.3,0.3l0.7,-9l5.9,0.5l-0.8,9.3l3.5,0.2zm-22.9,-43.2c-0.8,-4.9 2.1,-9.1 7.2,-9.9c5.1,-0.9 9.3,2 10.1,7c0.8,4.9 -2.1,9.1 -7.2,9.9c-5.1,0.8 -9.2,-2.1 -10.1,-7m20.6,-3.6c-1.2,-6.9 -7.2,-11.1 -14,-9.9c-6.8,1.2 -11.1,7.1 -9.9,14c1.2,6.9 7.2,11.1 14,9.9c6.8,-1.1 11.1,-7.1 9.9,-14m-17.5,-37.9l0.7,1.4c1.7,3.7 -0.2,5.1 -1.4,5.7c-2,0.9 -4,0.2 -5.2,-2.6l-0.7,-1.5l6.6,-3zm1.5,-4.6l-21.2,9.7l1.5,3.2l8.6,-4l0.7,1.5c0.7,1.6 1.8,3.4 4,4.4c2.3,1.1 4.4,0.5 5.6,-0.1c1.9,-0.9 3.6,-2.7 3.9,-5c0.3,-2 -0.4,-3.9 -1,-5.2l-2.1,-4.5zm-23.5,-32.3l-18.3,14.5l2.2,2.8l15.6,-12.4l6.2,7.8l-15.6,12.4l2.2,2.8l18.3,-14.5l-10.6,-13.4z"
         id="svg_9"
         fill="#ffffff" />
    </g>
  </g>
  <g
     id="g19">
    <title
       id="title16">Layer 2</title>
    <rect
       id="backgroundrect"
       width="100%"
       height="100%"
       x="0"
       y="0"
       fill="none" />
  </g>
  <g
     id="g24">
    <title
       id="title21">background</title>
    <rect
       x="-1"
       y="-1"
       width="432"
       height="351"
       id="canvas_background"
       fill="none" />
  </g>
</svg>
